<?xml version="1.0" encoding="UTF-8"?>
<svg width="800" height="600" viewBox="0 0 800 600" xmlns="http://www.w3.org/2000/svg">
    <!-- Degradado del cielo con tonos azul oscuro y negro -->
    <defs>
        <linearGradient id="skyGradient" x1="0" y1="0" x2="0" y2="1">
            <stop offset="0%" stop-color="#020024"/>
            <stop offset="50%" stop-color="#091d42"/>
            <stop offset="100%" stop-color="#000000"/>
        </linearGradient>
    </defs>
    <rect width="800" height="600" fill="url(#skyGradient)"/>

    <!-- Estrellas aleatorias -->
    <circle cx="100" cy="50" r="2" fill="white"/>
    <circle cx="200" cy="80" r="1.5" fill="white"/>
    <circle cx="300" cy="120" r="2.5" fill="white"/>
    <circle cx="400" cy="60" r="2" fill="white"/>
    <circle cx="500" cy="100" r="1.8" fill="white"/>
    <circle cx="600" cy="40" r="2" fill="white"/>
    <circle cx="700" cy="90" r="1.6" fill="white"/>
    <circle cx="750" cy="150" r="2.2" fill="white"/>
    <circle cx="50" cy="200" r="2.4" fill="white"/>
    <circle cx="150" cy="250" r="1.7" fill="white"/>
    <circle cx="250" cy="220" r="2.1" fill="white"/>
    <circle cx="350" cy="180" r="2" fill="white"/>
    <circle cx="450" cy="260" r="1.9" fill="white"/>
    <circle cx="550" cy="230" r="2.3" fill="white"/>
    <circle cx="650" cy="210" r="1.8" fill="white"/>
    <circle cx="750" cy="280" r="2.5" fill="white"/>
    
    <!-- Efecto de estrellas más pequeñas -->
    <circle cx="120" cy="90" r="1" fill="white"/>
    <circle cx="220" cy="160" r="1" fill="white"/>
    <circle cx="330" cy="140" r="1" fill="white"/>
    <circle cx="430" cy="200" r="1" fill="white"/>
    <circle cx="530" cy="70" r="1" fill="white"/>
    <circle cx="630" cy="190" r="1" fill="white"/>
    <circle cx="730" cy="250" r="1" fill="white"/>
</svg>
